<svg xmlns="http://www.w3.org/2000/svg" viewBox="0 0 17.86 17.86">
  <defs>
    <style>.a,.b{fill:none;}.b{stroke:#fff;stroke-linecap:round;stroke-linejoin:round;stroke-width:2px;}.c{fill:#fff;}
    </style>
  </defs>
  <title>question</title>
  <path class="a"
        d="M8.93,17.86a8.93,8.93,0,1,1,8.93-8.93A8.93,8.93,0,0,1,8.93,17.86ZM8.93,2a6.94,6.94,0,1,0,6.94,6.94A6.94,6.94,0,0,0,8.93,2Z"/>
  <path class="a"
        d="M8.93,11.81a1,1,0,0,1-1-1A3.08,3.08,0,0,1,9.52,8c.5-.4.69-.5.69-1.09A1.29,1.29,0,0,0,8.93,5.75h-.1A1.19,1.19,0,0,0,7.64,6.94a1,1,0,1,1-2,0A3.17,3.17,0,0,1,8.73,3.67H9A3.17,3.17,0,0,1,12.2,6.85h0a3.08,3.08,0,0,1-1.59,2.88c-.5.4-.69.5-.69,1.09A1,1,0,0,1,8.93,11.81Z"/>
  <path class="b" d="M8.93,13.49"/>
  <path class="c" d="M8.93,14.68a1,1,0,0,1-1-1v-.2a1,1,0,1,1,2,0v.2A1,1,0,0,1,8.93,14.68Z"/>
</svg>
