<?xml version="1.0" encoding="UTF-8"?><!DOCTYPE svg PUBLIC "-//W3C//DTD SVG 1.1//EN"
  "http://www.w3.org/Graphics/SVG/1.1/DTD/svg11.dtd">
<svg xmlns="http://www.w3.org/2000/svg">
  <defs>
    <style>.a{fill:#fff;stroke:#95989a;stroke-width:5px}</style>
    <style>.a,.b{fill:none}.b{stroke:#fff;stroke-linecap:round;stroke-linejoin:round;stroke-width:2px}.c{fill:#fff}
    </style>
  </defs>
  <symbol id="i-love" viewBox="0 0 38.14 36.04">
    <title>love</title>
    <path class="a"
          d="M5.64 19.07l-.36-.34A9.5 9.5 0 0 1 18.72 5.28l.34.36.34-.36a9.5 9.5 0 0 1 13.46 13.44c-.12.12-.24.24-.36.34L19.07 32.51z"/>
  </symbol>
  <symbol id="i-question" viewBox="0 0 17.86 17.86">
    <title>question</title>
    <path class="a"
          d="M8.93 17.86a8.93 8.93 0 1 1 8.93-8.93 8.93 8.93 0 0 1-8.93 8.93zM8.93 2a6.94 6.94 0 1 0 6.94 6.94A6.94 6.94 0 0 0 8.93 2z"/>
    <path class="a"
          d="M8.93 11.81a1 1 0 0 1-1-1A3.08 3.08 0 0 1 9.52 8c.5-.4.69-.5.69-1.09a1.29 1.29 0 0 0-1.28-1.16h-.1a1.19 1.19 0 0 0-1.19 1.19 1 1 0 1 1-2 0 3.17 3.17 0 0 1 3.09-3.27H9a3.17 3.17 0 0 1 3.2 3.18 3.08 3.08 0 0 1-1.59 2.88c-.5.4-.69.5-.69 1.09a1 1 0 0 1-.99.99z"/>
    <path class="c" d="M8.93 14.68a1 1 0 0 1-1-1v-.2a1 1 0 1 1 2 0v.2a1 1 0 0 1-1 1z"/>
  </symbol>
</svg>
